{
	"asset":{
		"generator":"Khronos glTF Blender I/O v4.1.63",
		"version":"2.0"
	},
	"scene":0,
	"scenes":[
		{
			"name":"Scene",
			"nodes":[
				0,
				1,
				2,
				3
			]
		}
	],
	"nodes":[
		{
			"mesh":0,
			"name":"mesh",
			"scale":[
				0.16002869606018066,
				0.16002869606018066,
				0.16002869606018066
			],
			"translation":[
				-0.08421233296394348,
				0.28663888573646545,
				0.08928580582141876
			]
		},
		{
			"mesh":1,
			"name":"Cube",
			"translation":[
				0,
				1,
				0
			]
		},
		{
			"mesh":2,
			"name":"Cube.001",
			"translation":[
				2,
				1,
				0
			]
		},
		{
			"mesh":3,
			"name":"Cube.002",
			"scale":[
				0.24220646917819977,
				0.18386738002300262,
				0.2664608955383301
			],
			"translation":[
				1.7396001815795898,
				2.1934216022491455,
				0.03735554218292236
			]
		}
	],
	"materials":[
		{
			"doubleSided":true,
			"name":"Material.002",
			"pbrMetallicRoughness":{
				"baseColorTexture":{
					"index":0
				},
				"metallicFactor":0
			}
		},
		{
			"doubleSided":true,
			"name":"Material.001",
			"normalTexture":{
				"index":1
			},
			"pbrMetallicRoughness":{
				"baseColorTexture":{
					"index":2
				},
				"metallicFactor":0
			}
		}
	],
	"meshes":[
		{
			"name":"Cylinder",
			"primitives":[
				{
					"attributes":{
						"POSITION":0,
						"NORMAL":1,
						"TEXCOORD_0":2
					},
					"indices":3,
					"material":0
				}
			]
		},
		{
			"name":"Cube.001",
			"primitives":[
				{
					"attributes":{
						"POSITION":4,
						"NORMAL":5,
						"TEXCOORD_0":6
					},
					"indices":7,
					"material":1
				}
			]
		},
		{
			"name":"Cube.003",
			"primitives":[
				{
					"attributes":{
						"POSITION":8,
						"NORMAL":9,
						"TEXCOORD_0":10
					},
					"indices":7,
					"material":1
				}
			]
		},
		{
			"name":"Cube.004",
			"primitives":[
				{
					"attributes":{
						"POSITION":11,
						"NORMAL":12,
						"TEXCOORD_0":13
					},
					"indices":14,
					"material":1
				}
			]
		}
	],
	"textures":[
		{
			"sampler":0,
			"source":0
		},
		{
			"sampler":0,
			"source":1
		},
		{
			"sampler":0,
			"source":2
		}
	],
	"images":[
		{
			"mimeType":"image/png",
			"name":"base_color",
			"uri":"materials/base_color.png"
		},
		{
			"mimeType":"image/png",
			"name":"ts1_normal",
			"uri":"materials/ts1_normal.png"
		},
		{
			"mimeType":"image/jpeg",
			"name":"ts1_color",
			"uri":"materials/ts1_color.jpg"
		}
	],
	"accessors":[
		{
			"bufferView":0,
			"componentType":5126,
			"count":210,
			"max":[
				0.554711639881134,
				1.357458233833313,
				0.8629330992698669
			],
			"min":[
				-0.554711639881134,
				-0.47124314308166504,
				-0.6801213622093201
			],
			"type":"VEC3"
		},
		{
			"bufferView":1,
			"componentType":5126,
			"count":210,
			"type":"VEC3"
		},
		{
			"bufferView":2,
			"componentType":5126,
			"count":210,
			"type":"VEC2"
		},
		{
			"bufferView":3,
			"componentType":5123,
			"count":1014,
			"type":"SCALAR"
		},
		{
			"bufferView":4,
			"componentType":5126,
			"count":140,
			"max":[
				1,
				1.2768843173980713,
				0.25
			],
			"min":[
				-1,
				-1,
				-0.375
			],
			"type":"VEC3"
		},
		{
			"bufferView":5,
			"componentType":5126,
			"count":140,
			"type":"VEC3"
		},
		{
			"bufferView":6,
			"componentType":5126,
			"count":140,
			"type":"VEC2"
		},
		{
			"bufferView":7,
			"componentType":5123,
			"count":312,
			"type":"SCALAR"
		},
		{
			"bufferView":8,
			"componentType":5126,
			"count":140,
			"max":[
				1,
				1.375,
				0.25
			],
			"min":[
				-1,
				-1,
				-0.375
			],
			"type":"VEC3"
		},
		{
			"bufferView":9,
			"componentType":5126,
			"count":140,
			"type":"VEC3"
		},
		{
			"bufferView":10,
			"componentType":5126,
			"count":140,
			"type":"VEC2"
		},
		{
			"bufferView":11,
			"componentType":5126,
			"count":24,
			"max":[
				1,
				1,
				1
			],
			"min":[
				-1,
				-1,
				0.7340856790542603
			],
			"type":"VEC3"
		},
		{
			"bufferView":12,
			"componentType":5126,
			"count":24,
			"type":"VEC3"
		},
		{
			"bufferView":13,
			"componentType":5126,
			"count":24,
			"type":"VEC2"
		},
		{
			"bufferView":14,
			"componentType":5123,
			"count":36,
			"type":"SCALAR"
		}
	],
	"bufferViews":[
		{
			"buffer":0,
			"byteLength":2520,
			"byteOffset":0,
			"target":34962
		},
		{
			"buffer":0,
			"byteLength":2520,
			"byteOffset":2520,
			"target":34962
		},
		{
			"buffer":0,
			"byteLength":1680,
			"byteOffset":5040,
			"target":34962
		},
		{
			"buffer":0,
			"byteLength":2028,
			"byteOffset":6720,
			"target":34963
		},
		{
			"buffer":0,
			"byteLength":1680,
			"byteOffset":8748,
			"target":34962
		},
		{
			"buffer":0,
			"byteLength":1680,
			"byteOffset":10428,
			"target":34962
		},
		{
			"buffer":0,
			"byteLength":1120,
			"byteOffset":12108,
			"target":34962
		},
		{
			"buffer":0,
			"byteLength":624,
			"byteOffset":13228,
			"target":34963
		},
		{
			"buffer":0,
			"byteLength":1680,
			"byteOffset":13852,
			"target":34962
		},
		{
			"buffer":0,
			"byteLength":1680,
			"byteOffset":15532,
			"target":34962
		},
		{
			"buffer":0,
			"byteLength":1120,
			"byteOffset":17212,
			"target":34962
		},
		{
			"buffer":0,
			"byteLength":288,
			"byteOffset":18332,
			"target":34962
		},
		{
			"buffer":0,
			"byteLength":288,
			"byteOffset":18620,
			"target":34962
		},
		{
			"buffer":0,
			"byteLength":192,
			"byteOffset":18908,
			"target":34962
		},
		{
			"buffer":0,
			"byteLength":72,
			"byteOffset":19100,
			"target":34963
		}
	],
	"samplers":[
		{
			"magFilter":9729,
			"minFilter":9987
		}
	],
	"buffers":[
		{
			"byteLength":19172,
			"uri":"architecture_tests.bin"
		}
	]
}
